<svg xmlns="http://www.w3.org/2000/svg" xmlns:xlink="http://www.w3.org/1999/xlink" width="20.51" height="22.844" viewBox="0 0 20.51 22.844"><defs><style>.a{fill:url(#a);}.b{fill:url(#b);}.c{fill:url(#c);}.d{fill:url(#d);}.e{opacity:0.1;}.f{opacity:0.07;}.g{fill:#fff;opacity:0.3;}</style><linearGradient id="a" x1="0.916" y1="0.05" x2="-0.383" y2="0.719" gradientUnits="objectBoundingBox"><stop offset="0" stop-color="#008eff"/><stop offset="0.01" stop-color="#008fff"/><stop offset="0.26" stop-color="#00acff"/><stop offset="0.51" stop-color="#00c0ff"/><stop offset="0.76" stop-color="#00cdff"/><stop offset="1" stop-color="#00d1ff"/></linearGradient><linearGradient id="b" x1="0.913" y1="0.5" x2="-1.466" y2="0.5" gradientUnits="objectBoundingBox"><stop offset="0" stop-color="#ffd800"/><stop offset="1" stop-color="#ff8a00"/></linearGradient><linearGradient id="c" x1="0.863" y1="0.177" x2="-0.501" y2="1.952" gradientUnits="objectBoundingBox"><stop offset="0" stop-color="#ff3a44"/><stop offset="1" stop-color="#b11162"/></linearGradient><linearGradient id="d" x1="-0.188" y1="-0.541" x2="0.421" y2="0.249" gradientUnits="objectBoundingBox"><stop offset="0" stop-color="#328e71"/><stop offset="0.07" stop-color="#2d9571"/><stop offset="0.48" stop-color="#15bd74"/><stop offset="0.8" stop-color="#06d575"/><stop offset="1" stop-color="#00de76"/></linearGradient></defs><g transform="translate(0.004 0)"><g transform="translate(-0.004 0)"><path class="a" d="M.409.457A1.782,1.782,0,0,0,0,1.7v19.64a1.8,1.8,0,0,0,.41,1.245l.067.067,11-11.006v-.261l-11-11Z" transform="translate(0.004 -0.099)"/><path class="b" d="M19.059,17.821,15.39,14.152v-.261l3.669-3.661.082.045,4.347,2.468c1.245.7,1.245,1.857,0,2.565l-4.347,2.468Z" transform="translate(-3.912 -2.602)"/><path class="c" d="M15.366,19.078,11.638,15.35.55,26.393a1.491,1.491,0,0,0,1.827.052l12.967-7.367" transform="translate(-0.137 -3.904)"/><path class="d" d="M15.366,7.673,2.377.3A1.439,1.439,0,0,0,.55.358L11.615,11.423Z" transform="translate(-0.137 0)"/><path class="e" d="M15.276,20.24,2.369,27.562a1.491,1.491,0,0,1-1.782,0l-.067.067.067.067a1.491,1.491,0,0,0,1.782,0l12.967-7.367Z" transform="translate(-0.129 -5.148)"/><path class="f" d="M.409,29.573A1.812,1.812,0,0,1,0,28.32v.127a1.8,1.8,0,0,0,.41,1.245l.067-.067Z" transform="translate(0.004 -7.204)"/><path class="f" d="M24.739,16.458l-4.429,2.52.082.082,4.347-2.5a1.573,1.573,0,0,0,.932-1.282,1.648,1.648,0,0,1-.932,1.178Z" transform="translate(-5.163 -3.887)"/><path class="g" d="M2.237.433l17.336,9.835a1.64,1.64,0,0,1,.932,1.156,1.558,1.558,0,0,0-.932-1.283L2.237.3C1.014-.4,0,.179,0,1.6V1.73C0,.314,1.014-.275,2.237.433Z" transform="translate(0.003 0)"/></g></g></svg>